<svg width="1120" height="640" viewBox="0 0 1120 640" fill="none" xmlns="http://www.w3.org/2000/svg">
  <defs>
    <linearGradient id="bg" x1="120" y1="40" x2="940" y2="620" gradientUnits="userSpaceOnUse">
      <stop stop-color="#172332" />
      <stop offset="1" stop-color="#0D1117" />
    </linearGradient>
    <radialGradient id="glowA" cx="0" cy="0" r="1" gradientUnits="userSpaceOnUse" gradientTransform="translate(260 180) rotate(8) scale(260 210)">
      <stop stop-color="#5B8CFF" stop-opacity="0.55"/>
      <stop offset="1" stop-color="#5B8CFF" stop-opacity="0"/>
    </radialGradient>
    <radialGradient id="glowB" cx="0" cy="0" r="1" gradientUnits="userSpaceOnUse" gradientTransform="translate(870 470) rotate(-18) scale(300 220)">
      <stop stop-color="#37D0C9" stop-opacity="0.48"/>
      <stop offset="1" stop-color="#37D0C9" stop-opacity="0"/>
    </radialGradient>
    <pattern id="grid" width="28" height="28" patternUnits="userSpaceOnUse">
      <path d="M28 0H0V28" stroke="#9BA7B4" stroke-opacity="0.16"/>
    </pattern>
  </defs>
  <rect width="1120" height="640" rx="28" fill="url(#bg)"/>
  <rect width="1120" height="640" rx="28" fill="url(#grid)"/>
  <rect width="1120" height="640" rx="28" fill="url(#glowA)"/>
  <rect width="1120" height="640" rx="28" fill="url(#glowB)"/>
  <path d="M148 486L322 332L458 402L638 214L778 260L972 132" stroke="#5B8CFF" stroke-opacity="0.66" stroke-width="3" stroke-linecap="round"/>
  <path d="M164 192L314 244L482 166L664 296L812 244L982 352" stroke="#37D0C9" stroke-opacity="0.62" stroke-width="2.5" stroke-linecap="round"/>
  <g fill="#E8EDF2">
    <circle cx="148" cy="486" r="5"/>
    <circle cx="322" cy="332" r="5"/>
    <circle cx="458" cy="402" r="5"/>
    <circle cx="638" cy="214" r="5"/>
    <circle cx="778" cy="260" r="5"/>
    <circle cx="972" cy="132" r="5"/>
  </g>
</svg>
